{"title":"Looper 2012 HDRIP KORSUB XViD UNiQUE","uid":7782013,"size":1741072723,"categoryP":"video","categoryS":"movies","magnet":"?xt=urn:btih:fa61c86d9e8f4d0d36d5b9003dbea35125c4035b&amp;dn=Looper+2012+HDRIP+KORSUB+XViD+UNiQUE&amp;tr=udp%3A%2F%2Ftracker.openbittorrent.com%3A80&amp;tr=udp%3A%2F%2Fopen.demonii.com%3A1337&amp;tr=udp%3A%2F%2Ftracker.coppersurfer.tk%3A6969&amp;tr=udp%3A%2F%2Fexodus.desync.com%3A6969","seeders":7,"leechers":0,"uploader":"HeroMaster","files":-1,"time":1351797329,"description":"Looper 2012 HDRIP KORSUB XViD UNiQUE\n\n[[.........why be the same as everyone else when YOU can be UNiQUE.........]]             \n\nFormat                                   : AVI\nFormat/Info                              : Audio Video Interleave\nFile size                                : 1.61 GiB\nDuration                                 : 1h 58mn\nOverall bit rate                         : 1 942 Kbps\nWriting library                          : VirtualDubMod build 2540/release\n\nVideo\nID                                       : 0\nFormat                                   : MPEG-4 Visual\nFormat profile                           : Advanced Simple@L5\nFormat settings, BVOP                    : 2\nFormat settings, QPel                    : No\nFormat settings, GMC                     : No warppoints\nFormat settings, Matrix                  : Default (H.263)\nMuxing mode                              : Packed bitstream\nCodec ID                                 : XVID\nCodec ID/Hint                            : XviD\nDuration                                 : 1h 58mn\nBit rate                                 : 1 548 Kbps\nWidth                                    : 720 pixels\nHeight                                   : 304 pixels\nDisplay aspect ratio                     : 2.35:1\nFrame rate                               : 23.976 fps\nColor space                              : YUV\nChroma subsampling                       : 4:2:0\nBit depth                                : 8 bits\nScan type                                : Progressive\nCompression mode                         : Lossy\nBits/(Pixel*Frame)                       : 0.295\nStream size                              : 1.28 GiB (80%)\nWriting library                          : XviD 64\n\nAudio\nID                                       : 1\nFormat                                   : AC-3\nFormat/Info                              : Audio Coding 3\nMode extension                           : CM (complete main)\nFormat settings, Endianness              : Big\nCodec ID                                 : 2000\nDuration                                 : 1h 58mn\nBit rate mode                            : Constant\nBit rate                                 : 384 Kbps\nChannel(s)                               : 6 channels\nChannel positions                        : Front: L C R, Side: L R, LFE\nSampling rate                            : 44.1 KHz\nBit depth                                : 16 bits\nCompression mode                         : Lossy\nStream size                              : 326 MiB (20%)\nAlignment                                : Split accross interleaves\nInterleave, duration                     : 42 ms (1.00 video frame)\nInterleave, preload duration             : 500 ms\n\n &lt;a href=&quot;\nhttp://www.imdb.com/title/tt1276104/&quot; rel=&quot;nofollow&quot; target=&quot;_NEW&quot;&gt;\nhttp://www.imdb.com/title/tt1276104/&lt;/a&gt;\n\n\nRatings: 8.0/10 from 60,588 users   Metascore: 84/100 \nReviews: 342 user | 329 critic | 44 from Metacritic.com\n\nIn 2074, when the mob wants to get rid of someone, the target is sent 30 years \ninto the past, where a hired gun awaits. Someone like Joe, who one day learns \nthe mob wants to 'close the loop' by transporting back Joe's future self.\n\nDirector:\nRian Johnson\nWriter:\nRian Johnson\nStars:\nJoseph Gordon-Levitt, Bruce Willis and Emily Blunt | See full cast and crew\n\n\nSource Used\n\n\nLooper.2012.KORSUB.720p.HDRip.x264.AC3-JYK...........Thanks \n\n\nPoster:\n\n &lt;a href=&quot;\nhttp://imgon.net/di-KEWW.jpg&quot; rel=&quot;nofollow&quot; target=&quot;_NEW&quot;&gt;\nhttp://imgon.net/di-KEWW.jpg&lt;/a&gt;\n\n\nScreenshots:\n\n &lt;a href=&quot;\nhttp://imgon.net/di-F39M.png&quot; rel=&quot;nofollow&quot; target=&quot;_NEW&quot;&gt;\nhttp://imgon.net/di-F39M.png&lt;/a&gt;\n\n &lt;a href=&quot;\nhttp://imgon.net/di-7KY9.png&quot; rel=&quot;nofollow&quot; target=&quot;_NEW&quot;&gt;\nhttp://imgon.net/di-7KY9.png&lt;/a&gt;\n\n &lt;a href=&quot;\nhttp://imgon.net/di-PB8M.png&quot; rel=&quot;nofollow&quot; target=&quot;_NEW&quot;&gt;\nhttp://imgon.net/di-PB8M.png&lt;/a&gt;\n\n\nENJOY!","torrent":{"xt":"urn:btih:fa61c86d9e8f4d0d36d5b9003dbea35125c4035b","amp;dn":"Looper+2012+HDRIP+KORSUB+XViD+UNiQUE","amp;tr":["udp%3A%2F%2Ftracker.openbittorrent.com%3A80","udp%3A%2F%2Fopen.demonii.com%3A1337","udp%3A%2F%2Ftracker.coppersurfer.tk%3A6969","udp%3A%2F%2Fexodus.desync.com%3A6969"],"infoHash":"fa61c86d9e8f4d0d36d5b9003dbea35125c4035b","infoHashBuffer":{"type":"Buffer","data":[250,97,200,109,158,143,77,13,54,213,185,0,61,190,163,81,37,196,3,91]},"announce":[],"urlList":[]}}